<?xml version="1.0" encoding="UTF-8" standalone="no"?>
<svg
   version="1.1"
   id="Layer_1"
   x="0px"
   y="0px"
   width="240"
   viewBox="0 0 239.99999 277.12811"
   enable-background="new 0 0 2192 1952"
   xml:space="preserve"
   sodipodi:docname="logo.svg"
   inkscape:version="1.4.4 (dcaf3e7, 2026-05-05)"
   height="277.12811"
   xmlns:inkscape="http://www.inkscape.org/namespaces/inkscape"
   xmlns:sodipodi="http://sodipodi.sourceforge.net/DTD/sodipodi-0.dtd"
   xmlns="http://www.w3.org/2000/svg"
   xmlns:svg="http://www.w3.org/2000/svg"><defs
   id="defs643" /><sodipodi:namedview
   id="namedview643"
   pagecolor="#ffffff"
   bordercolor="#000000"
   borderopacity="0.25"
   inkscape:showpageshadow="2"
   inkscape:pageopacity="0.0"
   inkscape:pagecheckerboard="0"
   inkscape:deskcolor="#d1d1d1"
   inkscape:zoom="3.4978719"
   inkscape:cx="168.95987"
   inkscape:cy="227.85282"
   inkscape:window-width="2550"
   inkscape:window-height="1331"
   inkscape:window-x="5"
   inkscape:window-y="35"
   inkscape:window-maximized="0"
   inkscape:current-layer="Layer_1" />
<path
   sodipodi:type="star"
   style="display:inline;fill:#f6ebcf;fill-opacity:1;stroke:#e18539;stroke-width:36.9423;stroke-linecap:round;stroke-dasharray:none;stroke-opacity:1"
   id="path644"
   inkscape:flatsided="true"
   sodipodi:sides="6"
   sodipodi:cx="173.80869"
   sodipodi:cy="-112.25144"
   sodipodi:r1="564.33539"
   sodipodi:r2="488.72879"
   sodipodi:arg1="-2.0943951"
   sodipodi:arg2="-1.5707963"
   inkscape:rounded="0"
   inkscape:randomized="0"
   d="m -108.35901,-600.98023 564.33539,10e-6 282.16769,488.72878 -282.16769,488.72878 -564.33539,0 -282.16769,-488.72878 z"
   transform="matrix(0,0.23633926,-0.23633926,0,93.756692,97.364153)"
   inkscape:label="outsider" /><path
   sodipodi:type="star"
   style="display:inline;fill:#f6ebcf;fill-opacity:1;stroke:#e18539;stroke-width:14.7017;stroke-linecap:round;stroke-dasharray:none;stroke-opacity:1"
   id="path644-0"
   inkscape:flatsided="true"
   sodipodi:sides="6"
   sodipodi:cx="173.80869"
   sodipodi:cy="-112.25144"
   sodipodi:r1="564.33539"
   sodipodi:r2="488.72879"
   sodipodi:arg1="-2.0943951"
   sodipodi:arg2="-1.5707963"
   inkscape:rounded="0"
   inkscape:randomized="0"
   d="m -108.35901,-600.98023 564.33539,10e-6 282.16769,488.72878 -282.16769,488.72878 -564.33539,0 -282.16769,-488.72878 z"
   transform="matrix(0,0.20589332,-0.20589332,0,97.1743,102.65593)"
   inkscape:label="insider" />




































































































































































































































































































































































































































































<g
   id="g645"
   inkscape:label="rdyncall"
   transform="matrix(0.13966675,0,0,0.13966675,-34.97461,-0.3823612)"><path
     fill="#a65a1a"
     opacity="1"
     stroke="none"
     d="m 1622.1616,1471.8931 c -11.6927,0.4792 -22.6415,0.4792 -34.4105,0.4792 -0.3555,-2.6355 -0.983,-5.1349 -0.9873,-7.6355 -0.098,-57.3282 -0.1159,-114.6567 -0.202,-171.9851 -0.01,-3.798 0.04,-7.2733 4.0837,-9.3367 10.3066,-5.2595 20.5402,-10.6618 31.8055,-16.5291 0.5331,3.0742 1.1159,4.8746 1.1185,6.6759 0.091,64.3281 0.135,128.6563 0.1385,192.9845 10e-5,1.6224 -0.5231,3.245 -1.5464,5.3468 z"
     id="path453"
     inkscape:label="l" /><path
     fill="#a65a1a"
     opacity="1"
     stroke="none"
     d="m 1557.6582,1471.8931 c -11.6927,0.4792 -22.6415,0.4792 -34.4105,0.4792 -0.3555,-2.6355 -0.983,-5.1349 -0.9873,-7.6355 -0.098,-57.3282 -0.1159,-114.6567 -0.202,-171.9851 -0.01,-3.798 0.04,-7.2733 4.0837,-9.3367 10.3066,-5.2595 20.5402,-10.6618 31.8055,-16.5291 0.5331,3.0742 1.1159,4.8746 1.1185,6.6759 0.091,64.3281 0.135,128.6563 0.1385,192.9845 10e-5,1.6224 -0.5231,3.245 -1.5464,5.3468 z"
     id="path453-4"
     inkscape:label="l" /><path
     fill="#a45616"
     opacity="1"
     stroke="none"
     d="m 1368.1687,1336.0729 c 1.1079,-3.6353 2.0203,-6.4569 3.0624,-9.6796 1.659,-0.2851 3.2336,-0.7911 4.808,-0.7908 21.9753,0.01 43.9596,-0.2902 65.924,0.2286 32.213,0.7608 46.9612,15.4156 47.8279,47.4482 0.5311,19.6323 0.1499,39.2882 0.3198,58.9322 0.064,7.4343 -2.3993,13.6882 -7.739,18.7948 -3.8474,3.6795 -7.6322,7.4501 -11.7253,10.8415 -8.7411,7.2428 -18.5169,11.1599 -30.2744,10.6675 -14.9586,-0.6265 -29.9811,0.2381 -44.9356,-0.4358 -7.1754,-0.3234 -14.5403,-1.9135 -21.3203,-4.33 -11.8738,-4.2313 -19.4819,-13.3994 -21.2496,-25.6605 -1.3539,-9.3904 -0.9141,-19.278 0.3113,-28.7393 1.422,-10.9782 8.231,-19.2636 18.7131,-22.7857 9.3476,-3.1409 19.2351,-5.243 29.0463,-6.2981 13.543,-1.4563 27.2412,-1.4441 40.8659,-2.1883 3.251,-0.1776 6.4745,-0.8597 10.7498,-1.4543 0,-4.1671 0.3519,-7.7575 -0.076,-11.2522 -0.8099,-6.6217 -4.1433,-10.2017 -10.7258,-11.3329 -3.9035,-0.6708 -7.9556,-0.6392 -11.9411,-0.6416 -18.6458,-0.011 -37.2916,0.098 -55.9375,0.1051 -3.2075,0 -6.415,-0.2854 -10.904,-0.5004 1.8455,-7.4178 3.4248,-13.7663 5.1997,-20.9284 m 21.2587,81.1289 c -1.2152,2.6387 -1.7488,5.7302 -1.9042,8.6338 -0.5789,10.8204 3.5681,15.3644 14.3227,15.7667 6.295,0.2353 12.6047,0.07 18.9078,0.081 7.6296,0.014 15.2705,0.2864 22.8853,-0.042 6.8735,-0.2966 9.6099,-2.3298 9.7436,-7.5039 0.3034,-11.7421 0.096,-23.4974 0.096,-35.653 -8.3488,4.0174 -15.1329,10.5983 -24.3883,11.1057 -8.0929,0.4436 -14.8328,0.219 -23.5207,0.3642 -1.3244,0.022 -6.3669,0.7043 -7.5102,1.2072 -3.8421,1.6899 -5.6626,2.5389 -8.6317,6.04 z"
     id="path448"
     inkscape:label="a"
     sodipodi:nodetypes="cccssssssscssssscsssscccssssscsssc" /><path
     fill="#a55717"
     opacity="1"
     stroke="none"
     d="m 1207.8127,1401.9961 c 0.045,-9.9919 -0.1092,-18.9916 0.1727,-27.9774 0.8761,-27.9306 18.014,-46.2199 46.0407,-47.9524 17.5944,-1.0877 35.2832,-0.6685 52.9304,-0.8644 7.5871,-0.084 15.1757,-0.014 24.2575,-0.014 -1.8508,10.781 -3.5628,20.7525 -5.4005,31.4576 -3.3484,0.3119 -6.2055,0.7986 -9.064,0.8074 -15.9879,0.049 -31.9763,-0.035 -47.9645,-0.029 -3.3252,0 -6.6925,-0.1029 -9.9669,0.361 -7.5631,1.071 -12.5296,5.4377 -12.7517,13.0544 -0.5332,18.2961 -0.7174,36.6317 -0.1075,54.9203 0.3305,9.9119 5.9227,14.4405 16.6484,14.6329 19.313,0.3466 38.6359,0.1392 57.9546,0.1615 3.5782,0 7.1565,5e-4 12.3988,5e-4 -2.8865,11.2516 -5.4011,21.0542 -8.1948,31.9446 -6.9442,0 -13.5286,0.021 -20.1127,0 -16.6493,-0.062 -33.3162,0.3133 -49.9441,-0.3223 -27.7952,-1.0629 -45.6384,-19.3407 -46.7247,-47.1963 -0.2855,-7.3185 -0.1262,-14.6543 -0.1717,-22.9807 z"
     id="path452"
     inkscape:label="c" /><path
     fill="#a55716"
     opacity="1"
     stroke="none"
     d="m 1109.6018,1325.1743 c 9.5835,0.1926 18.2434,0.2111 26.8862,0.6037 25.5534,1.1601 40.5362,14.8331 44.1744,40.1959 0.4709,3.2832 0.8122,6.6177 0.822,9.9295 0.088,29.9598 0.099,59.9197 0.091,89.8797 -7e-4,1.9359 -0.35,3.8718 -0.6025,6.4835 -11.7682,0 -23.2263,0 -35.3595,0 -0.2234,-3.2639 -0.5863,-6.1531 -0.5927,-9.0431 -0.051,-22.6365 -0.026,-45.2728 -0.042,-67.9093 0,-6.3246 0.048,-12.6525 -0.1269,-18.9733 -0.4143,-14.9276 -4.2754,-18.629 -19.3571,-18.7378 -10.985,-0.079 -21.9703,-0.1519 -32.9553,-0.1352 -3.2502,0 -6.4999,0.3234 -10.5497,0.541 0,38.0651 0,75.5468 0,114.2256 -12.2159,1.261 -23.6907,0.4773 -35.9637,0.4794 -0.3521,-2.8203 -0.9279,-5.3221 -0.9369,-7.8258 -0.1198,-32.9555 -0.042,-65.9123 -0.3295,-98.866 -0.051,-5.842 1.7139,-10.1063 6.0382,-13.9144 8.4901,-7.4766 16.5485,-15.4475 25.1266,-22.8169 2.2961,-1.9726 5.7633,-3.319 8.7994,-3.5495 7.9511,-0.6037 15.9609,-0.4325 24.8787,-0.567 z"
     id="path450"
     inkscape:label="n" /><path
     fill="#a55615"
     opacity="1"
     stroke="none"
     d="m 975.89124,1460.0154 c -9.47883,23.1451 -18.67994,45.5784 -27.91492,68.0941 -12.55664,0 -24.46851,0 -37.55994,0 0.92371,-3.3201 1.4101,-6.0922 2.45069,-8.6378 5.53723,-13.547 10.83801,-27.2112 16.99151,-40.4773 3.32617,-7.1707 3.42426,-13.1171 0.15601,-20.5592 -17.78626,-40.5015 -34.93622,-81.2826 -52.2782,-121.9789 -1.28137,-3.0068 -2.35083,-6.1039 -3.90045,-10.1575 12.64557,0 24.40698,0 37.67877,0 13.12958,31.2365 26.58478,63.2475 40.69452,96.8158 1.86548,-3.7253 3.10431,-5.869 4.04864,-8.1354 11.25837,-27.019 22.65222,-53.9843 33.56214,-81.1438 2.46991,-6.1486 5.47095,-9.015 12.41749,-8.514 8.9022,0.6423 17.8858,0.1561 28.7974,0.1561 -18.6798,45.5629 -36.77288,89.6945 -55.14366,134.5379 z"
     id="path449"
     inkscape:label="y" /><path
     fill="#a55616"
     opacity="1"
     stroke="none"
     d="m 855.66162,1316 c -0.024,37.3118 -0.25879,73.6254 0.0802,109.9337 0.0813,8.7075 -2.48785,15.6101 -8.65692,21.3892 -7.04688,6.6014 -14.13568,13.1585 -21.25537,19.6813 -4.1109,3.7666 -8.92792,5.3851 -14.59528,5.3184 -14.98871,-0.1765 -29.98211,0.084 -44.9718,-0.046 -30.41608,-0.2642 -48.26916,-16.686 -49.71344,-46.7874 -0.84509,-17.6147 -0.3017,-35.3043 -0.082,-52.9563 0.0532,-4.2755 0.93707,-8.6323 2.05237,-12.7872 5.52795,-20.5937 19.94079,-32.4602 41.92206,-33.6995 13.62017,-0.7675 27.3067,-0.3215 40.96185,-0.526 5.29572,-0.079 10.58703,-0.45 16.98639,-0.7376 0.25989,-3.628 0.56671,-6.7975 0.6958,-9.9741 0.18921,-4.6579 1.01288,-9.4549 0.22119,-13.956 -2.1463,-12.2027 4.19452,-18.17 14.36359,-22.4868 6.9306,-2.942 13.40161,-6.9667 21.82922,-11.436 0.0577,17.1568 0.1098,32.6136 0.16217,49.0704 m -36.92963,121.1981 c 0.22162,-1.9687 0.63038,-3.9369 0.6363,-5.9064 0.0678,-22.5977 0.0913,-45.1955 0.0663,-67.7934 -0.002,-1.8856 -0.43982,-3.7708 -0.67255,-5.6345 -18.49267,0 -36.34924,-0.1879 -54.19726,0.1197 -5.05628,0.087 -8.55835,3.747 -10.19806,8.3938 -1.19544,3.3878 -1.95056,7.1057 -2.00745,10.6906 -0.2373,14.9509 -0.35144,29.9109 -0.0968,44.8604 0.24103,14.1468 5.33191,19.1106 19.48578,19.3902 11.95972,0.2362 23.93134,0.3263 35.88672,0.034 3.43726,-0.084 6.83655,-1.7204 11.09704,-4.154 z"
     id="path447"
     inkscape:label="d" /><path
     fill="#a65919"
     opacity="1"
     stroke="none"
     d="m 616.07556,1472.809 c -5.87689,0 -10.81622,0 -16.44678,0 -0.38495,-3.2097 -0.9422,-5.7167 -0.94757,-8.2249 -0.0703,-32.6049 0.0643,-65.211 -0.19073,-97.8143 -0.046,-5.8767 1.64129,-10.2499 6.16247,-13.8318 9.64301,-7.6396 19.03315,-15.6117 28.88953,-22.9612 3.02332,-2.2542 7.19946,-4.0471 10.89288,-4.1341 17.88794,-0.4213 35.7912,-0.1901 55.06659,-0.1901 -1.16919,10.1138 -2.32086,20.0761 -3.59912,31.1331 -8.9552,0 -17.18597,0.01 -25.41681,0 -7.6521,-0.01 -15.31176,-0.2513 -22.95446,0.01 -9.42524,0.3205 -11.65162,2.6663 -11.69062,12.1398 -0.12726,30.9411 -0.13598,61.8828 -0.18872,92.8242 -0.006,3.2539 -7.3e-4,6.508 -7.3e-4,11.0492 -6.83161,0 -12.73499,0 -19.57593,0 z"
     id="path454"
     inkscape:label="r" /></g>





























































































































































































<path
   d="M 95.871318,149.29423 H 74.847423 l -5.103797,-11.51866 q -2.809429,-6.32122 -5.056973,-9.22429 -2.247541,-2.9499 -4.401437,-3.74591 -2.107073,-0.84283 -5.478388,-0.84283 h -2.200719 v 25.33169 H 33.033752 V 84.396407 h 33.291736 q 8.053696,0 13.204317,3.277667 5.150619,3.277668 7.398162,7.960049 2.294368,4.682387 2.294368,8.896537 0,4.9165 -1.919777,8.33464 -1.872952,3.37131 -3.980024,4.91649 -2.107072,1.54519 -4.729205,2.94991 3.137195,1.82613 5.15062,4.35461 2.060248,2.48167 5.572034,10.11394 z M 69.275387,104.90525 q 0,-4.49509 -2.949899,-6.274405 -2.949901,-1.779301 -9.598884,-1.779301 h -4.120495 v 15.639166 h 4.214143 q 7.164044,0 9.786178,-1.54519 2.668957,-1.59201 2.668957,-6.04027 z"
   id="text644"
   style="font-weight:bold;font-size:686.6px;font-family:'Gill Sans';-inkscape-font-specification:'Gill Sans, Bold';fill:#d8662b;stroke-width:4.49509;stroke-linecap:round"
   inkscape:label="R"
   aria-label="R" /><path
   d="m 205.27514,145.31409 q -3.71303,2.10707 -7.59876,3.37131 -3.88572,1.26426 -7.85778,1.77932 -3.92891,0.56188 -8.16003,0.56188 -7.81463,0 -14.03178,-2.3412 -6.17398,-2.34118 -10.75051,-6.88309 -4.53333,-4.58873 -6.8216,-10.67583 -2.24509,-6.13391 -2.24509,-13.43843 0,-8.38146 2.67684,-14.65586 2.67683,-6.321213 7.46922,-10.488533 4.83557,-4.167319 10.96639,-6.133919 6.17397,-2.013424 12.99558,-2.013424 10.18923,0 23.09846,4.9165 v 17.231166 q -4.44699,-2.99672 -8.80764,-4.96333 -4.31747,-2.013425 -10.18923,-2.013425 -5.22414,0 -9.75748,2.247545 -4.53335,2.24755 -7.29653,6.41487 -2.76318,4.16731 -2.76318,9.73935 0,4.9165 2.41778,9.03699 2.41779,4.07368 6.69208,6.50852 4.31748,2.38801 9.71431,2.38801 4.36065,0 8.24637,-1.12377 3.88573,-1.17059 6.5194,-2.57531 2.6768,-1.40472 5.48318,-3.32449 z"
   id="text644-3"
   style="font-weight:bold;font-size:659.303px;font-family:'Gill Sans';-inkscape-font-specification:'Gill Sans, Bold';fill:#e88825;stroke-width:4.31638;stroke-linecap:round"
   inkscape:label="C"
   aria-label="C" /><path
   id="path706"
   style="fill:#f6ebcf;fill-opacity:1;stroke:none;stroke-width:13.1492;stroke-dasharray:none;stroke-opacity:1"
   inkscape:label="dark"
   d="m 109.91687,53.280039 -35.83142,73.060331 35.76936,0.28398 -16.664529,50.86936 C 122.89471,146.50112 166.32686,94.698301 166.32686,94.698301 L 133.97,94.356463 150.80604,53.990039 Z"
   sodipodi:nodetypes="cccccccc" /><g
   id="g644"
   transform="matrix(0.13966675,0,0,0.13966675,122.22214,-11.990221)"
   inkscape:label="lighting"
   style="stroke:#e18539;stroke-width:2.3;stroke-dasharray:none;stroke-opacity:1"><path
     fill="#e88825"
     opacity="1"
     stroke="none"
     d="m -50.167512,471.96687 252.237992,0.15135 -342.05267,380.77094 H 67.984014 L -225.01633,1321.8114 -65.422889,928.47277 -264.11647,926.90043 Z"
     id="path445-5"
     sodipodi:nodetypes="cccccccc"
     inkscape:label="dark"
     style="stroke:#e18539;stroke-width:2.3;stroke-dasharray:none;stroke-opacity:1" /><path
     fill="#d8662b"
     opacity="1"
     stroke="none"
     d="M 19.84621,789.43928 221.53717,792.40207 -224.67592,1321.6924 65.662874,853.90221 H -142.30333 L 201.55665,472.19472 Z"
     id="path494-9"
     sodipodi:nodetypes="ccccccc"
     inkscape:label="light"
     style="stroke:#e18539;stroke-width:2.3;stroke-dasharray:none;stroke-opacity:1" /></g></svg>
